M48
; DRILL file {KiCad (6.0.7)} date Mon Nov 14 16:15:10 2022
; FORMAT={-:-/ absolute / metric / decimal}
; #@! TF.CreationDate,2022-11-14T16:15:10+01:00
; #@! TF.GenerationSoftware,Kicad,Pcbnew,(6.0.7)
; #@! TF.FileFunction,MixedPlating,1,2
FMAT,2
METRIC
; #@! TA.AperFunction,Plated,PTH,ComponentDrill
T1C0.800
; #@! TA.AperFunction,Plated,PTH,ComponentDrill
T2C0.900
; #@! TA.AperFunction,Plated,PTH,ComponentDrill
T3C0.950
; #@! TA.AperFunction,Plated,PTH,ComponentDrill
T4C1.020
%
G90
G05
T1
X61.209Y-120.396
X68.829Y-120.396
X72.893Y-106.68
X80.513Y-106.68
X84.831Y-120.396
X92.451Y-120.396
X96.51Y-106.68
X104.13Y-106.68
X108.199Y-120.396
X115.819Y-120.396
X120.137Y-106.68
X127.757Y-106.68
X131.826Y-120.396
X139.446Y-120.396
X143.251Y-106.68
X150.871Y-106.68
X159.014Y-104.663
X159.014Y-107.203
X159.014Y-109.743
X159.014Y-112.283
X159.014Y-114.823
X159.014Y-117.363
X159.014Y-119.903
X159.014Y-122.443
X166.634Y-104.663
X166.634Y-107.203
X166.634Y-109.743
X166.634Y-112.283
X166.634Y-114.823
X166.634Y-117.363
X166.634Y-119.903
X166.634Y-122.443
X170.434Y-105.938
X170.434Y-108.438
X174.762Y-105.913
X174.762Y-108.453
X174.762Y-110.993
X174.762Y-113.533
X174.762Y-116.073
X174.762Y-118.613
X174.762Y-121.153
X182.382Y-105.913
X182.382Y-108.453
X182.382Y-110.993
X182.382Y-113.533
X182.382Y-116.073
X182.382Y-118.613
X182.382Y-121.153
X186.182Y-105.984
X186.182Y-108.484
X190.256Y-109.738
X190.256Y-112.278
X190.256Y-114.818
X190.256Y-117.358
X192.806Y-105.918
X192.806Y-121.158
X195.306Y-105.918
X195.306Y-121.158
X197.876Y-109.738
X197.876Y-112.278
X197.876Y-114.818
X197.876Y-117.358
X201.442Y-114.808
X203.942Y-114.808
X210.895Y-105.664
X210.895Y-110.744
X210.895Y-116.317
X210.895Y-121.397
X213.435Y-108.204
X213.435Y-118.857
X224.79Y-115.844
X224.79Y-118.344
T2
X61.209Y-113.538
X63.749Y-113.538
X72.893Y-113.538
X75.433Y-113.538
X84.826Y-113.538
X87.366Y-113.538
X96.51Y-113.538
X99.05Y-113.538
X108.199Y-113.538
X110.739Y-113.538
X120.137Y-113.538
X122.677Y-113.538
X131.821Y-113.538
X134.361Y-113.538
X143.246Y-113.538
X145.786Y-113.538
T3
X220.258Y-108.666
X222.758Y-108.666
X225.258Y-108.666
T4
X235.51Y-113.538
X280.21Y-113.538
X287.326Y-113.538
X332.026Y-113.538
X339.142Y-113.538
X383.842Y-113.538
T0
M30
