%TF.GenerationSoftware,KiCad,Pcbnew,(6.0.7)*%
%TF.CreationDate,2022-11-14T16:15:13+01:00*%
%TF.ProjectId,Magic Wand,4d616769-6320-4576-916e-642e6b696361,1.0*%
%TF.SameCoordinates,Original*%
%TF.FileFunction,Legend,Top*%
%TF.FilePolarity,Positive*%
%FSLAX46Y46*%
G04 Gerber Fmt 4.6, Leading zero omitted, Abs format (unit mm)*
G04 Created by KiCad (PCBNEW (6.0.7)) date 2022-11-14 16:15:13*
%MOMM*%
%LPD*%
G01*
G04 APERTURE LIST*
%ADD10C,0.150000*%
%ADD11C,0.200000*%
%ADD12C,0.300000*%
%ADD13C,0.120000*%
G04 APERTURE END LIST*
D10*
X226187047Y-115895428D02*
X226948952Y-115895428D01*
X226568000Y-116276380D02*
X226568000Y-115514476D01*
D11*
X224960571Y-105612285D02*
X224889142Y-105755142D01*
X224817714Y-105826571D01*
X224674857Y-105898000D01*
X224246285Y-105898000D01*
X224103428Y-105826571D01*
X224032000Y-105755142D01*
X223960571Y-105612285D01*
X223960571Y-105398000D01*
X224032000Y-105255142D01*
X224103428Y-105183714D01*
X224246285Y-105112285D01*
X224674857Y-105112285D01*
X224817714Y-105183714D01*
X224889142Y-105255142D01*
X224960571Y-105398000D01*
X224960571Y-105612285D01*
X223960571Y-104683714D02*
X223960571Y-104112285D01*
X224960571Y-104469428D02*
X223674857Y-104469428D01*
X223532000Y-104398000D01*
X223460571Y-104255142D01*
X223460571Y-104112285D01*
X223960571Y-103826571D02*
X223960571Y-103255142D01*
X224960571Y-103612285D02*
X223674857Y-103612285D01*
X223532000Y-103540857D01*
X223460571Y-103398000D01*
X223460571Y-103255142D01*
X221658571Y-105687714D02*
X221587142Y-105830571D01*
X221515714Y-105902000D01*
X221372857Y-105973428D01*
X220944285Y-105973428D01*
X220801428Y-105902000D01*
X220730000Y-105830571D01*
X220658571Y-105687714D01*
X220658571Y-105473428D01*
X220730000Y-105330571D01*
X220801428Y-105259142D01*
X220944285Y-105187714D01*
X221372857Y-105187714D01*
X221515714Y-105259142D01*
X221587142Y-105330571D01*
X221658571Y-105473428D01*
X221658571Y-105687714D01*
X220658571Y-104544857D02*
X221658571Y-104544857D01*
X220801428Y-104544857D02*
X220730000Y-104473428D01*
X220658571Y-104330571D01*
X220658571Y-104116285D01*
X220730000Y-103973428D01*
X220872857Y-103902000D01*
X221658571Y-103902000D01*
D12*
X287816476Y-104695523D02*
X288102190Y-104790761D01*
X288578380Y-104790761D01*
X288768857Y-104695523D01*
X288864095Y-104600285D01*
X288959333Y-104409809D01*
X288959333Y-104219333D01*
X288864095Y-104028857D01*
X288768857Y-103933619D01*
X288578380Y-103838380D01*
X288197428Y-103743142D01*
X288006952Y-103647904D01*
X287911714Y-103552666D01*
X287816476Y-103362190D01*
X287816476Y-103171714D01*
X287911714Y-102981238D01*
X288006952Y-102886000D01*
X288197428Y-102790761D01*
X288673619Y-102790761D01*
X288959333Y-102886000D01*
X290578380Y-104695523D02*
X290387904Y-104790761D01*
X290006952Y-104790761D01*
X289816476Y-104695523D01*
X289721238Y-104505047D01*
X289721238Y-103743142D01*
X289816476Y-103552666D01*
X290006952Y-103457428D01*
X290387904Y-103457428D01*
X290578380Y-103552666D01*
X290673619Y-103743142D01*
X290673619Y-103933619D01*
X289721238Y-104124095D01*
X292387904Y-103457428D02*
X292387904Y-105457428D01*
X292387904Y-104695523D02*
X292197428Y-104790761D01*
X291816476Y-104790761D01*
X291626000Y-104695523D01*
X291530761Y-104600285D01*
X291435523Y-104409809D01*
X291435523Y-103838380D01*
X291530761Y-103647904D01*
X291626000Y-103552666D01*
X291816476Y-103457428D01*
X292197428Y-103457428D01*
X292387904Y-103552666D01*
X294197428Y-103457428D02*
X294197428Y-104790761D01*
X293340285Y-103457428D02*
X293340285Y-104505047D01*
X293435523Y-104695523D01*
X293626000Y-104790761D01*
X293911714Y-104790761D01*
X294102190Y-104695523D01*
X294197428Y-104600285D01*
X295911714Y-104695523D02*
X295721238Y-104790761D01*
X295340285Y-104790761D01*
X295149809Y-104695523D01*
X295054571Y-104505047D01*
X295054571Y-103743142D01*
X295149809Y-103552666D01*
X295340285Y-103457428D01*
X295721238Y-103457428D01*
X295911714Y-103552666D01*
X296006952Y-103743142D01*
X296006952Y-103933619D01*
X295054571Y-104124095D01*
X296864095Y-103457428D02*
X296864095Y-104790761D01*
X296864095Y-103647904D02*
X296959333Y-103552666D01*
X297149809Y-103457428D01*
X297435523Y-103457428D01*
X297626000Y-103552666D01*
X297721238Y-103743142D01*
X297721238Y-104790761D01*
X299530761Y-104695523D02*
X299340285Y-104790761D01*
X298959333Y-104790761D01*
X298768857Y-104695523D01*
X298673619Y-104600285D01*
X298578380Y-104409809D01*
X298578380Y-103838380D01*
X298673619Y-103647904D01*
X298768857Y-103552666D01*
X298959333Y-103457428D01*
X299340285Y-103457428D01*
X299530761Y-103552666D01*
X300387904Y-104790761D02*
X300387904Y-103457428D01*
X300387904Y-102790761D02*
X300292666Y-102886000D01*
X300387904Y-102981238D01*
X300483142Y-102886000D01*
X300387904Y-102790761D01*
X300387904Y-102981238D01*
X301340285Y-103457428D02*
X301340285Y-104790761D01*
X301340285Y-103647904D02*
X301435523Y-103552666D01*
X301626000Y-103457428D01*
X301911714Y-103457428D01*
X302102190Y-103552666D01*
X302197428Y-103743142D01*
X302197428Y-104790761D01*
X304006952Y-103457428D02*
X304006952Y-105076476D01*
X303911714Y-105266952D01*
X303816476Y-105362190D01*
X303626000Y-105457428D01*
X303340285Y-105457428D01*
X303149809Y-105362190D01*
X304006952Y-104695523D02*
X303816476Y-104790761D01*
X303435523Y-104790761D01*
X303245047Y-104695523D01*
X303149809Y-104600285D01*
X303054571Y-104409809D01*
X303054571Y-103838380D01*
X303149809Y-103647904D01*
X303245047Y-103552666D01*
X303435523Y-103457428D01*
X303816476Y-103457428D01*
X304006952Y-103552666D01*
X306483142Y-104790761D02*
X306483142Y-102790761D01*
X307149809Y-104219333D01*
X307816476Y-102790761D01*
X307816476Y-104790761D01*
X309626000Y-104790761D02*
X309626000Y-103743142D01*
X309530761Y-103552666D01*
X309340285Y-103457428D01*
X308959333Y-103457428D01*
X308768857Y-103552666D01*
X309626000Y-104695523D02*
X309435523Y-104790761D01*
X308959333Y-104790761D01*
X308768857Y-104695523D01*
X308673619Y-104505047D01*
X308673619Y-104314571D01*
X308768857Y-104124095D01*
X308959333Y-104028857D01*
X309435523Y-104028857D01*
X309626000Y-103933619D01*
X311435523Y-103457428D02*
X311435523Y-105076476D01*
X311340285Y-105266952D01*
X311245047Y-105362190D01*
X311054571Y-105457428D01*
X310768857Y-105457428D01*
X310578380Y-105362190D01*
X311435523Y-104695523D02*
X311245047Y-104790761D01*
X310864095Y-104790761D01*
X310673619Y-104695523D01*
X310578380Y-104600285D01*
X310483142Y-104409809D01*
X310483142Y-103838380D01*
X310578380Y-103647904D01*
X310673619Y-103552666D01*
X310864095Y-103457428D01*
X311245047Y-103457428D01*
X311435523Y-103552666D01*
X312387904Y-104790761D02*
X312387904Y-103457428D01*
X312387904Y-102790761D02*
X312292666Y-102886000D01*
X312387904Y-102981238D01*
X312483142Y-102886000D01*
X312387904Y-102790761D01*
X312387904Y-102981238D01*
X314197428Y-104695523D02*
X314006952Y-104790761D01*
X313626000Y-104790761D01*
X313435523Y-104695523D01*
X313340285Y-104600285D01*
X313245047Y-104409809D01*
X313245047Y-103838380D01*
X313340285Y-103647904D01*
X313435523Y-103552666D01*
X313626000Y-103457428D01*
X314006952Y-103457428D01*
X314197428Y-103552666D01*
X316387904Y-102790761D02*
X316864095Y-104790761D01*
X317245047Y-103362190D01*
X317626000Y-104790761D01*
X318102190Y-102790761D01*
X319721238Y-104790761D02*
X319721238Y-103743142D01*
X319626000Y-103552666D01*
X319435523Y-103457428D01*
X319054571Y-103457428D01*
X318864095Y-103552666D01*
X319721238Y-104695523D02*
X319530761Y-104790761D01*
X319054571Y-104790761D01*
X318864095Y-104695523D01*
X318768857Y-104505047D01*
X318768857Y-104314571D01*
X318864095Y-104124095D01*
X319054571Y-104028857D01*
X319530761Y-104028857D01*
X319721238Y-103933619D01*
X320673619Y-103457428D02*
X320673619Y-104790761D01*
X320673619Y-103647904D02*
X320768857Y-103552666D01*
X320959333Y-103457428D01*
X321245047Y-103457428D01*
X321435523Y-103552666D01*
X321530761Y-103743142D01*
X321530761Y-104790761D01*
X323340285Y-104790761D02*
X323340285Y-102790761D01*
X323340285Y-104695523D02*
X323149809Y-104790761D01*
X322768857Y-104790761D01*
X322578380Y-104695523D01*
X322483142Y-104600285D01*
X322387904Y-104409809D01*
X322387904Y-103838380D01*
X322483142Y-103647904D01*
X322578380Y-103552666D01*
X322768857Y-103457428D01*
X323149809Y-103457428D01*
X323340285Y-103552666D01*
X325530761Y-102790761D02*
X326197428Y-104790761D01*
X326864095Y-102790761D01*
X328578380Y-104790761D02*
X327435523Y-104790761D01*
X328006952Y-104790761D02*
X328006952Y-102790761D01*
X327816476Y-103076476D01*
X327626000Y-103266952D01*
X327435523Y-103362190D01*
X329435523Y-104600285D02*
X329530761Y-104695523D01*
X329435523Y-104790761D01*
X329340285Y-104695523D01*
X329435523Y-104600285D01*
X329435523Y-104790761D01*
X330768857Y-102790761D02*
X330959333Y-102790761D01*
X331149809Y-102886000D01*
X331245047Y-102981238D01*
X331340285Y-103171714D01*
X331435523Y-103552666D01*
X331435523Y-104028857D01*
X331340285Y-104409809D01*
X331245047Y-104600285D01*
X331149809Y-104695523D01*
X330959333Y-104790761D01*
X330768857Y-104790761D01*
X330578380Y-104695523D01*
X330483142Y-104600285D01*
X330387904Y-104409809D01*
X330292666Y-104028857D01*
X330292666Y-103552666D01*
X330387904Y-103171714D01*
X330483142Y-102981238D01*
X330578380Y-102886000D01*
X330768857Y-102790761D01*
D10*
%TO.C,U1*%
X193304095Y-112990380D02*
X193304095Y-113799904D01*
X193351714Y-113895142D01*
X193399333Y-113942761D01*
X193494571Y-113990380D01*
X193685047Y-113990380D01*
X193780285Y-113942761D01*
X193827904Y-113895142D01*
X193875523Y-113799904D01*
X193875523Y-112990380D01*
X194875523Y-113990380D02*
X194304095Y-113990380D01*
X194589809Y-113990380D02*
X194589809Y-112990380D01*
X194494571Y-113133238D01*
X194399333Y-113228476D01*
X194304095Y-113276095D01*
%TO.C,C5*%
X170267333Y-111101142D02*
X170219714Y-111148761D01*
X170076857Y-111196380D01*
X169981619Y-111196380D01*
X169838761Y-111148761D01*
X169743523Y-111053523D01*
X169695904Y-110958285D01*
X169648285Y-110767809D01*
X169648285Y-110624952D01*
X169695904Y-110434476D01*
X169743523Y-110339238D01*
X169838761Y-110244000D01*
X169981619Y-110196380D01*
X170076857Y-110196380D01*
X170219714Y-110244000D01*
X170267333Y-110291619D01*
X171172095Y-110196380D02*
X170695904Y-110196380D01*
X170648285Y-110672571D01*
X170695904Y-110624952D01*
X170791142Y-110577333D01*
X171029238Y-110577333D01*
X171124476Y-110624952D01*
X171172095Y-110672571D01*
X171219714Y-110767809D01*
X171219714Y-111005904D01*
X171172095Y-111101142D01*
X171124476Y-111148761D01*
X171029238Y-111196380D01*
X170791142Y-111196380D01*
X170695904Y-111148761D01*
X170648285Y-111101142D01*
%TO.C,R2*%
X135469333Y-120848380D02*
X135136000Y-120372190D01*
X134897904Y-120848380D02*
X134897904Y-119848380D01*
X135278857Y-119848380D01*
X135374095Y-119896000D01*
X135421714Y-119943619D01*
X135469333Y-120038857D01*
X135469333Y-120181714D01*
X135421714Y-120276952D01*
X135374095Y-120324571D01*
X135278857Y-120372190D01*
X134897904Y-120372190D01*
X135850285Y-119943619D02*
X135897904Y-119896000D01*
X135993142Y-119848380D01*
X136231238Y-119848380D01*
X136326476Y-119896000D01*
X136374095Y-119943619D01*
X136421714Y-120038857D01*
X136421714Y-120134095D01*
X136374095Y-120276952D01*
X135802666Y-120848380D01*
X136421714Y-120848380D01*
%TO.C,BT1*%
X360148285Y-113466571D02*
X360291142Y-113514190D01*
X360338761Y-113561809D01*
X360386380Y-113657047D01*
X360386380Y-113799904D01*
X360338761Y-113895142D01*
X360291142Y-113942761D01*
X360195904Y-113990380D01*
X359814952Y-113990380D01*
X359814952Y-112990380D01*
X360148285Y-112990380D01*
X360243523Y-113038000D01*
X360291142Y-113085619D01*
X360338761Y-113180857D01*
X360338761Y-113276095D01*
X360291142Y-113371333D01*
X360243523Y-113418952D01*
X360148285Y-113466571D01*
X359814952Y-113466571D01*
X360672095Y-112990380D02*
X361243523Y-112990380D01*
X360957809Y-113990380D02*
X360957809Y-112990380D01*
X362100666Y-113990380D02*
X361529238Y-113990380D01*
X361814952Y-113990380D02*
X361814952Y-112990380D01*
X361719714Y-113133238D01*
X361624476Y-113228476D01*
X361529238Y-113276095D01*
X383865428Y-121838952D02*
X383865428Y-121077047D01*
X338709047Y-121529428D02*
X339470952Y-121529428D01*
X339090000Y-121910380D02*
X339090000Y-121148476D01*
%TO.C,D7*%
X78679380Y-114276095D02*
X77679380Y-114276095D01*
X77679380Y-114038000D01*
X77727000Y-113895142D01*
X77822238Y-113799904D01*
X77917476Y-113752285D01*
X78107952Y-113704666D01*
X78250809Y-113704666D01*
X78441285Y-113752285D01*
X78536523Y-113799904D01*
X78631761Y-113895142D01*
X78679380Y-114038000D01*
X78679380Y-114276095D01*
X77679380Y-113371333D02*
X77679380Y-112704666D01*
X78679380Y-113133238D01*
%TO.C,U2*%
X177800095Y-112990380D02*
X177800095Y-113799904D01*
X177847714Y-113895142D01*
X177895333Y-113942761D01*
X177990571Y-113990380D01*
X178181047Y-113990380D01*
X178276285Y-113942761D01*
X178323904Y-113895142D01*
X178371523Y-113799904D01*
X178371523Y-112990380D01*
X178800095Y-113085619D02*
X178847714Y-113038000D01*
X178942952Y-112990380D01*
X179181047Y-112990380D01*
X179276285Y-113038000D01*
X179323904Y-113085619D01*
X179371523Y-113180857D01*
X179371523Y-113276095D01*
X179323904Y-113418952D01*
X178752476Y-113990380D01*
X179371523Y-113990380D01*
%TO.C,D5*%
X102296380Y-114276095D02*
X101296380Y-114276095D01*
X101296380Y-114038000D01*
X101344000Y-113895142D01*
X101439238Y-113799904D01*
X101534476Y-113752285D01*
X101724952Y-113704666D01*
X101867809Y-113704666D01*
X102058285Y-113752285D01*
X102153523Y-113799904D01*
X102248761Y-113895142D01*
X102296380Y-114038000D01*
X102296380Y-114276095D01*
X101296380Y-112799904D02*
X101296380Y-113276095D01*
X101772571Y-113323714D01*
X101724952Y-113276095D01*
X101677333Y-113180857D01*
X101677333Y-112942761D01*
X101724952Y-112847523D01*
X101772571Y-112799904D01*
X101867809Y-112752285D01*
X102105904Y-112752285D01*
X102201142Y-112799904D01*
X102248761Y-112847523D01*
X102296380Y-112942761D01*
X102296380Y-113180857D01*
X102248761Y-113276095D01*
X102201142Y-113323714D01*
%TO.C,BT3*%
X256516285Y-113466571D02*
X256659142Y-113514190D01*
X256706761Y-113561809D01*
X256754380Y-113657047D01*
X256754380Y-113799904D01*
X256706761Y-113895142D01*
X256659142Y-113942761D01*
X256563904Y-113990380D01*
X256182952Y-113990380D01*
X256182952Y-112990380D01*
X256516285Y-112990380D01*
X256611523Y-113038000D01*
X256659142Y-113085619D01*
X256706761Y-113180857D01*
X256706761Y-113276095D01*
X256659142Y-113371333D01*
X256611523Y-113418952D01*
X256516285Y-113466571D01*
X256182952Y-113466571D01*
X257040095Y-112990380D02*
X257611523Y-112990380D01*
X257325809Y-113990380D02*
X257325809Y-112990380D01*
X257849619Y-112990380D02*
X258468666Y-112990380D01*
X258135333Y-113371333D01*
X258278190Y-113371333D01*
X258373428Y-113418952D01*
X258421047Y-113466571D01*
X258468666Y-113561809D01*
X258468666Y-113799904D01*
X258421047Y-113895142D01*
X258373428Y-113942761D01*
X258278190Y-113990380D01*
X257992476Y-113990380D01*
X257897238Y-113942761D01*
X257849619Y-113895142D01*
X280233428Y-121838952D02*
X280233428Y-121077047D01*
X235077047Y-121529428D02*
X235838952Y-121529428D01*
X235458000Y-121910380D02*
X235458000Y-121148476D01*
%TO.C,C6*%
X186015333Y-111147142D02*
X185967714Y-111194761D01*
X185824857Y-111242380D01*
X185729619Y-111242380D01*
X185586761Y-111194761D01*
X185491523Y-111099523D01*
X185443904Y-111004285D01*
X185396285Y-110813809D01*
X185396285Y-110670952D01*
X185443904Y-110480476D01*
X185491523Y-110385238D01*
X185586761Y-110290000D01*
X185729619Y-110242380D01*
X185824857Y-110242380D01*
X185967714Y-110290000D01*
X186015333Y-110337619D01*
X186872476Y-110242380D02*
X186682000Y-110242380D01*
X186586761Y-110290000D01*
X186539142Y-110337619D01*
X186443904Y-110480476D01*
X186396285Y-110670952D01*
X186396285Y-111051904D01*
X186443904Y-111147142D01*
X186491523Y-111194761D01*
X186586761Y-111242380D01*
X186777238Y-111242380D01*
X186872476Y-111194761D01*
X186920095Y-111147142D01*
X186967714Y-111051904D01*
X186967714Y-110813809D01*
X186920095Y-110718571D01*
X186872476Y-110670952D01*
X186777238Y-110623333D01*
X186586761Y-110623333D01*
X186491523Y-110670952D01*
X186443904Y-110718571D01*
X186396285Y-110813809D01*
%TO.C,R7*%
X76536333Y-107132380D02*
X76203000Y-106656190D01*
X75964904Y-107132380D02*
X75964904Y-106132380D01*
X76345857Y-106132380D01*
X76441095Y-106180000D01*
X76488714Y-106227619D01*
X76536333Y-106322857D01*
X76536333Y-106465714D01*
X76488714Y-106560952D01*
X76441095Y-106608571D01*
X76345857Y-106656190D01*
X75964904Y-106656190D01*
X76869666Y-106132380D02*
X77536333Y-106132380D01*
X77107761Y-107132380D01*
%TO.C,D1*%
X149037380Y-114276095D02*
X148037380Y-114276095D01*
X148037380Y-114038000D01*
X148085000Y-113895142D01*
X148180238Y-113799904D01*
X148275476Y-113752285D01*
X148465952Y-113704666D01*
X148608809Y-113704666D01*
X148799285Y-113752285D01*
X148894523Y-113799904D01*
X148989761Y-113895142D01*
X149037380Y-114038000D01*
X149037380Y-114276095D01*
X149037380Y-112752285D02*
X149037380Y-113323714D01*
X149037380Y-113038000D02*
X148037380Y-113038000D01*
X148180238Y-113133238D01*
X148275476Y-113228476D01*
X148323095Y-113323714D01*
%TO.C,C4*%
X229547142Y-117260666D02*
X229594761Y-117308285D01*
X229642380Y-117451142D01*
X229642380Y-117546380D01*
X229594761Y-117689238D01*
X229499523Y-117784476D01*
X229404285Y-117832095D01*
X229213809Y-117879714D01*
X229070952Y-117879714D01*
X228880476Y-117832095D01*
X228785238Y-117784476D01*
X228690000Y-117689238D01*
X228642380Y-117546380D01*
X228642380Y-117451142D01*
X228690000Y-117308285D01*
X228737619Y-117260666D01*
X228975714Y-116403523D02*
X229642380Y-116403523D01*
X228594761Y-116641619D02*
X229309047Y-116879714D01*
X229309047Y-116260666D01*
%TO.C,R5*%
X100153333Y-107132380D02*
X99820000Y-106656190D01*
X99581904Y-107132380D02*
X99581904Y-106132380D01*
X99962857Y-106132380D01*
X100058095Y-106180000D01*
X100105714Y-106227619D01*
X100153333Y-106322857D01*
X100153333Y-106465714D01*
X100105714Y-106560952D01*
X100058095Y-106608571D01*
X99962857Y-106656190D01*
X99581904Y-106656190D01*
X101058095Y-106132380D02*
X100581904Y-106132380D01*
X100534285Y-106608571D01*
X100581904Y-106560952D01*
X100677142Y-106513333D01*
X100915238Y-106513333D01*
X101010476Y-106560952D01*
X101058095Y-106608571D01*
X101105714Y-106703809D01*
X101105714Y-106941904D01*
X101058095Y-107037142D01*
X101010476Y-107084761D01*
X100915238Y-107132380D01*
X100677142Y-107132380D01*
X100581904Y-107084761D01*
X100534285Y-107037142D01*
%TO.C,R3*%
X123780333Y-107132380D02*
X123447000Y-106656190D01*
X123208904Y-107132380D02*
X123208904Y-106132380D01*
X123589857Y-106132380D01*
X123685095Y-106180000D01*
X123732714Y-106227619D01*
X123780333Y-106322857D01*
X123780333Y-106465714D01*
X123732714Y-106560952D01*
X123685095Y-106608571D01*
X123589857Y-106656190D01*
X123208904Y-106656190D01*
X124113666Y-106132380D02*
X124732714Y-106132380D01*
X124399380Y-106513333D01*
X124542238Y-106513333D01*
X124637476Y-106560952D01*
X124685095Y-106608571D01*
X124732714Y-106703809D01*
X124732714Y-106941904D01*
X124685095Y-107037142D01*
X124637476Y-107084761D01*
X124542238Y-107132380D01*
X124256523Y-107132380D01*
X124161285Y-107084761D01*
X124113666Y-107037142D01*
%TO.C,R6*%
X88474333Y-120848380D02*
X88141000Y-120372190D01*
X87902904Y-120848380D02*
X87902904Y-119848380D01*
X88283857Y-119848380D01*
X88379095Y-119896000D01*
X88426714Y-119943619D01*
X88474333Y-120038857D01*
X88474333Y-120181714D01*
X88426714Y-120276952D01*
X88379095Y-120324571D01*
X88283857Y-120372190D01*
X87902904Y-120372190D01*
X89331476Y-119848380D02*
X89141000Y-119848380D01*
X89045761Y-119896000D01*
X88998142Y-119943619D01*
X88902904Y-120086476D01*
X88855285Y-120276952D01*
X88855285Y-120657904D01*
X88902904Y-120753142D01*
X88950523Y-120800761D01*
X89045761Y-120848380D01*
X89236238Y-120848380D01*
X89331476Y-120800761D01*
X89379095Y-120753142D01*
X89426714Y-120657904D01*
X89426714Y-120419809D01*
X89379095Y-120324571D01*
X89331476Y-120276952D01*
X89236238Y-120229333D01*
X89045761Y-120229333D01*
X88950523Y-120276952D01*
X88902904Y-120324571D01*
X88855285Y-120419809D01*
%TO.C,R1*%
X146894333Y-107132380D02*
X146561000Y-106656190D01*
X146322904Y-107132380D02*
X146322904Y-106132380D01*
X146703857Y-106132380D01*
X146799095Y-106180000D01*
X146846714Y-106227619D01*
X146894333Y-106322857D01*
X146894333Y-106465714D01*
X146846714Y-106560952D01*
X146799095Y-106608571D01*
X146703857Y-106656190D01*
X146322904Y-106656190D01*
X147846714Y-107132380D02*
X147275285Y-107132380D01*
X147561000Y-107132380D02*
X147561000Y-106132380D01*
X147465761Y-106275238D01*
X147370523Y-106370476D01*
X147275285Y-106418095D01*
%TO.C,C1*%
X197979142Y-106084666D02*
X198026761Y-106132285D01*
X198074380Y-106275142D01*
X198074380Y-106370380D01*
X198026761Y-106513238D01*
X197931523Y-106608476D01*
X197836285Y-106656095D01*
X197645809Y-106703714D01*
X197502952Y-106703714D01*
X197312476Y-106656095D01*
X197217238Y-106608476D01*
X197122000Y-106513238D01*
X197074380Y-106370380D01*
X197074380Y-106275142D01*
X197122000Y-106132285D01*
X197169619Y-106084666D01*
X198074380Y-105132285D02*
X198074380Y-105703714D01*
X198074380Y-105418000D02*
X197074380Y-105418000D01*
X197217238Y-105513238D01*
X197312476Y-105608476D01*
X197360095Y-105703714D01*
%TO.C,D3*%
X125923380Y-114276095D02*
X124923380Y-114276095D01*
X124923380Y-114038000D01*
X124971000Y-113895142D01*
X125066238Y-113799904D01*
X125161476Y-113752285D01*
X125351952Y-113704666D01*
X125494809Y-113704666D01*
X125685285Y-113752285D01*
X125780523Y-113799904D01*
X125875761Y-113895142D01*
X125923380Y-114038000D01*
X125923380Y-114276095D01*
X124923380Y-113371333D02*
X124923380Y-112752285D01*
X125304333Y-113085619D01*
X125304333Y-112942761D01*
X125351952Y-112847523D01*
X125399571Y-112799904D01*
X125494809Y-112752285D01*
X125732904Y-112752285D01*
X125828142Y-112799904D01*
X125875761Y-112847523D01*
X125923380Y-112942761D01*
X125923380Y-113228476D01*
X125875761Y-113323714D01*
X125828142Y-113371333D01*
%TO.C,POT1*%
X206700380Y-109861857D02*
X205700380Y-109861857D01*
X205700380Y-109480904D01*
X205748000Y-109385666D01*
X205795619Y-109338047D01*
X205890857Y-109290428D01*
X206033714Y-109290428D01*
X206128952Y-109338047D01*
X206176571Y-109385666D01*
X206224190Y-109480904D01*
X206224190Y-109861857D01*
X205700380Y-108671380D02*
X205700380Y-108480904D01*
X205748000Y-108385666D01*
X205843238Y-108290428D01*
X206033714Y-108242809D01*
X206367047Y-108242809D01*
X206557523Y-108290428D01*
X206652761Y-108385666D01*
X206700380Y-108480904D01*
X206700380Y-108671380D01*
X206652761Y-108766619D01*
X206557523Y-108861857D01*
X206367047Y-108909476D01*
X206033714Y-108909476D01*
X205843238Y-108861857D01*
X205748000Y-108766619D01*
X205700380Y-108671380D01*
X205700380Y-107957095D02*
X205700380Y-107385666D01*
X206700380Y-107671380D02*
X205700380Y-107671380D01*
X206700380Y-106528523D02*
X206700380Y-107099952D01*
X206700380Y-106814238D02*
X205700380Y-106814238D01*
X205843238Y-106909476D01*
X205938476Y-107004714D01*
X205986095Y-107099952D01*
%TO.C,D6*%
X90617380Y-114276095D02*
X89617380Y-114276095D01*
X89617380Y-114038000D01*
X89665000Y-113895142D01*
X89760238Y-113799904D01*
X89855476Y-113752285D01*
X90045952Y-113704666D01*
X90188809Y-113704666D01*
X90379285Y-113752285D01*
X90474523Y-113799904D01*
X90569761Y-113895142D01*
X90617380Y-114038000D01*
X90617380Y-114276095D01*
X89617380Y-112847523D02*
X89617380Y-113038000D01*
X89665000Y-113133238D01*
X89712619Y-113180857D01*
X89855476Y-113276095D01*
X90045952Y-113323714D01*
X90426904Y-113323714D01*
X90522142Y-113276095D01*
X90569761Y-113228476D01*
X90617380Y-113133238D01*
X90617380Y-112942761D01*
X90569761Y-112847523D01*
X90522142Y-112799904D01*
X90426904Y-112752285D01*
X90188809Y-112752285D01*
X90093571Y-112799904D01*
X90045952Y-112847523D01*
X89998333Y-112942761D01*
X89998333Y-113133238D01*
X90045952Y-113228476D01*
X90093571Y-113276095D01*
X90188809Y-113323714D01*
%TO.C,BT2*%
X308332285Y-113466571D02*
X308475142Y-113514190D01*
X308522761Y-113561809D01*
X308570380Y-113657047D01*
X308570380Y-113799904D01*
X308522761Y-113895142D01*
X308475142Y-113942761D01*
X308379904Y-113990380D01*
X307998952Y-113990380D01*
X307998952Y-112990380D01*
X308332285Y-112990380D01*
X308427523Y-113038000D01*
X308475142Y-113085619D01*
X308522761Y-113180857D01*
X308522761Y-113276095D01*
X308475142Y-113371333D01*
X308427523Y-113418952D01*
X308332285Y-113466571D01*
X307998952Y-113466571D01*
X308856095Y-112990380D02*
X309427523Y-112990380D01*
X309141809Y-113990380D02*
X309141809Y-112990380D01*
X309713238Y-113085619D02*
X309760857Y-113038000D01*
X309856095Y-112990380D01*
X310094190Y-112990380D01*
X310189428Y-113038000D01*
X310237047Y-113085619D01*
X310284666Y-113180857D01*
X310284666Y-113276095D01*
X310237047Y-113418952D01*
X309665619Y-113990380D01*
X310284666Y-113990380D01*
X286893047Y-121529428D02*
X287654952Y-121529428D01*
X287274000Y-121910380D02*
X287274000Y-121148476D01*
X332049428Y-121838952D02*
X332049428Y-121077047D01*
%TO.C,R4*%
X111842333Y-123218380D02*
X111509000Y-122742190D01*
X111270904Y-123218380D02*
X111270904Y-122218380D01*
X111651857Y-122218380D01*
X111747095Y-122266000D01*
X111794714Y-122313619D01*
X111842333Y-122408857D01*
X111842333Y-122551714D01*
X111794714Y-122646952D01*
X111747095Y-122694571D01*
X111651857Y-122742190D01*
X111270904Y-122742190D01*
X112699476Y-122551714D02*
X112699476Y-123218380D01*
X112461380Y-122170761D02*
X112223285Y-122885047D01*
X112842333Y-122885047D01*
%TO.C,D2*%
X137607380Y-114276095D02*
X136607380Y-114276095D01*
X136607380Y-114038000D01*
X136655000Y-113895142D01*
X136750238Y-113799904D01*
X136845476Y-113752285D01*
X137035952Y-113704666D01*
X137178809Y-113704666D01*
X137369285Y-113752285D01*
X137464523Y-113799904D01*
X137559761Y-113895142D01*
X137607380Y-114038000D01*
X137607380Y-114276095D01*
X136702619Y-113323714D02*
X136655000Y-113276095D01*
X136607380Y-113180857D01*
X136607380Y-112942761D01*
X136655000Y-112847523D01*
X136702619Y-112799904D01*
X136797857Y-112752285D01*
X136893095Y-112752285D01*
X137035952Y-112799904D01*
X137607380Y-113371333D01*
X137607380Y-112752285D01*
%TO.C,SW1*%
X229512761Y-110299333D02*
X229560380Y-110156476D01*
X229560380Y-109918380D01*
X229512761Y-109823142D01*
X229465142Y-109775523D01*
X229369904Y-109727904D01*
X229274666Y-109727904D01*
X229179428Y-109775523D01*
X229131809Y-109823142D01*
X229084190Y-109918380D01*
X229036571Y-110108857D01*
X228988952Y-110204095D01*
X228941333Y-110251714D01*
X228846095Y-110299333D01*
X228750857Y-110299333D01*
X228655619Y-110251714D01*
X228608000Y-110204095D01*
X228560380Y-110108857D01*
X228560380Y-109870761D01*
X228608000Y-109727904D01*
X228560380Y-109394571D02*
X229560380Y-109156476D01*
X228846095Y-108966000D01*
X229560380Y-108775523D01*
X228560380Y-108537428D01*
X229560380Y-107632666D02*
X229560380Y-108204095D01*
X229560380Y-107918380D02*
X228560380Y-107918380D01*
X228703238Y-108013619D01*
X228798476Y-108108857D01*
X228846095Y-108204095D01*
%TO.C,D4*%
X113985380Y-114276095D02*
X112985380Y-114276095D01*
X112985380Y-114038000D01*
X113033000Y-113895142D01*
X113128238Y-113799904D01*
X113223476Y-113752285D01*
X113413952Y-113704666D01*
X113556809Y-113704666D01*
X113747285Y-113752285D01*
X113842523Y-113799904D01*
X113937761Y-113895142D01*
X113985380Y-114038000D01*
X113985380Y-114276095D01*
X113318714Y-112847523D02*
X113985380Y-112847523D01*
X112937761Y-113085619D02*
X113652047Y-113323714D01*
X113652047Y-112704666D01*
%TO.C,POT2*%
X206700380Y-120514857D02*
X205700380Y-120514857D01*
X205700380Y-120133904D01*
X205748000Y-120038666D01*
X205795619Y-119991047D01*
X205890857Y-119943428D01*
X206033714Y-119943428D01*
X206128952Y-119991047D01*
X206176571Y-120038666D01*
X206224190Y-120133904D01*
X206224190Y-120514857D01*
X205700380Y-119324380D02*
X205700380Y-119133904D01*
X205748000Y-119038666D01*
X205843238Y-118943428D01*
X206033714Y-118895809D01*
X206367047Y-118895809D01*
X206557523Y-118943428D01*
X206652761Y-119038666D01*
X206700380Y-119133904D01*
X206700380Y-119324380D01*
X206652761Y-119419619D01*
X206557523Y-119514857D01*
X206367047Y-119562476D01*
X206033714Y-119562476D01*
X205843238Y-119514857D01*
X205748000Y-119419619D01*
X205700380Y-119324380D01*
X205700380Y-118610095D02*
X205700380Y-118038666D01*
X206700380Y-118324380D02*
X205700380Y-118324380D01*
X205795619Y-117752952D02*
X205748000Y-117705333D01*
X205700380Y-117610095D01*
X205700380Y-117372000D01*
X205748000Y-117276761D01*
X205795619Y-117229142D01*
X205890857Y-117181523D01*
X205986095Y-117181523D01*
X206128952Y-117229142D01*
X206700380Y-117800571D01*
X206700380Y-117181523D01*
%TO.C,D8*%
X58867380Y-114276095D02*
X57867380Y-114276095D01*
X57867380Y-114038000D01*
X57915000Y-113895142D01*
X58010238Y-113799904D01*
X58105476Y-113752285D01*
X58295952Y-113704666D01*
X58438809Y-113704666D01*
X58629285Y-113752285D01*
X58724523Y-113799904D01*
X58819761Y-113895142D01*
X58867380Y-114038000D01*
X58867380Y-114276095D01*
X58295952Y-113133238D02*
X58248333Y-113228476D01*
X58200714Y-113276095D01*
X58105476Y-113323714D01*
X58057857Y-113323714D01*
X57962619Y-113276095D01*
X57915000Y-113228476D01*
X57867380Y-113133238D01*
X57867380Y-112942761D01*
X57915000Y-112847523D01*
X57962619Y-112799904D01*
X58057857Y-112752285D01*
X58105476Y-112752285D01*
X58200714Y-112799904D01*
X58248333Y-112847523D01*
X58295952Y-112942761D01*
X58295952Y-113133238D01*
X58343571Y-113228476D01*
X58391190Y-113276095D01*
X58486428Y-113323714D01*
X58676904Y-113323714D01*
X58772142Y-113276095D01*
X58819761Y-113228476D01*
X58867380Y-113133238D01*
X58867380Y-112942761D01*
X58819761Y-112847523D01*
X58772142Y-112799904D01*
X58676904Y-112752285D01*
X58486428Y-112752285D01*
X58391190Y-112799904D01*
X58343571Y-112847523D01*
X58295952Y-112942761D01*
%TO.C,C3*%
X202525333Y-117705142D02*
X202477714Y-117752761D01*
X202334857Y-117800380D01*
X202239619Y-117800380D01*
X202096761Y-117752761D01*
X202001523Y-117657523D01*
X201953904Y-117562285D01*
X201906285Y-117371809D01*
X201906285Y-117228952D01*
X201953904Y-117038476D01*
X202001523Y-116943238D01*
X202096761Y-116848000D01*
X202239619Y-116800380D01*
X202334857Y-116800380D01*
X202477714Y-116848000D01*
X202525333Y-116895619D01*
X202858666Y-116800380D02*
X203477714Y-116800380D01*
X203144380Y-117181333D01*
X203287238Y-117181333D01*
X203382476Y-117228952D01*
X203430095Y-117276571D01*
X203477714Y-117371809D01*
X203477714Y-117609904D01*
X203430095Y-117705142D01*
X203382476Y-117752761D01*
X203287238Y-117800380D01*
X203001523Y-117800380D01*
X202906285Y-117752761D01*
X202858666Y-117705142D01*
%TO.C,U3*%
X162062095Y-112990380D02*
X162062095Y-113799904D01*
X162109714Y-113895142D01*
X162157333Y-113942761D01*
X162252571Y-113990380D01*
X162443047Y-113990380D01*
X162538285Y-113942761D01*
X162585904Y-113895142D01*
X162633523Y-113799904D01*
X162633523Y-112990380D01*
X163014476Y-112990380D02*
X163633523Y-112990380D01*
X163300190Y-113371333D01*
X163443047Y-113371333D01*
X163538285Y-113418952D01*
X163585904Y-113466571D01*
X163633523Y-113561809D01*
X163633523Y-113799904D01*
X163585904Y-113895142D01*
X163538285Y-113942761D01*
X163443047Y-113990380D01*
X163157333Y-113990380D01*
X163062095Y-113942761D01*
X163014476Y-113895142D01*
%TO.C,R8*%
X64852333Y-120848380D02*
X64519000Y-120372190D01*
X64280904Y-120848380D02*
X64280904Y-119848380D01*
X64661857Y-119848380D01*
X64757095Y-119896000D01*
X64804714Y-119943619D01*
X64852333Y-120038857D01*
X64852333Y-120181714D01*
X64804714Y-120276952D01*
X64757095Y-120324571D01*
X64661857Y-120372190D01*
X64280904Y-120372190D01*
X65423761Y-120276952D02*
X65328523Y-120229333D01*
X65280904Y-120181714D01*
X65233285Y-120086476D01*
X65233285Y-120038857D01*
X65280904Y-119943619D01*
X65328523Y-119896000D01*
X65423761Y-119848380D01*
X65614238Y-119848380D01*
X65709476Y-119896000D01*
X65757095Y-119943619D01*
X65804714Y-120038857D01*
X65804714Y-120086476D01*
X65757095Y-120181714D01*
X65709476Y-120229333D01*
X65614238Y-120276952D01*
X65423761Y-120276952D01*
X65328523Y-120324571D01*
X65280904Y-120372190D01*
X65233285Y-120467428D01*
X65233285Y-120657904D01*
X65280904Y-120753142D01*
X65328523Y-120800761D01*
X65423761Y-120848380D01*
X65614238Y-120848380D01*
X65709476Y-120800761D01*
X65757095Y-120753142D01*
X65804714Y-120657904D01*
X65804714Y-120467428D01*
X65757095Y-120372190D01*
X65709476Y-120324571D01*
X65614238Y-120276952D01*
%TO.C,C2*%
X197969142Y-121324666D02*
X198016761Y-121372285D01*
X198064380Y-121515142D01*
X198064380Y-121610380D01*
X198016761Y-121753238D01*
X197921523Y-121848476D01*
X197826285Y-121896095D01*
X197635809Y-121943714D01*
X197492952Y-121943714D01*
X197302476Y-121896095D01*
X197207238Y-121848476D01*
X197112000Y-121753238D01*
X197064380Y-121610380D01*
X197064380Y-121515142D01*
X197112000Y-121372285D01*
X197159619Y-121324666D01*
X197159619Y-120943714D02*
X197112000Y-120896095D01*
X197064380Y-120800857D01*
X197064380Y-120562761D01*
X197112000Y-120467523D01*
X197159619Y-120419904D01*
X197254857Y-120372285D01*
X197350095Y-120372285D01*
X197492952Y-120419904D01*
X198064380Y-120991333D01*
X198064380Y-120372285D01*
D13*
%TO.C,U1*%
X191416000Y-108408000D02*
X191416000Y-118688000D01*
X193066000Y-108408000D02*
X191416000Y-108408000D01*
X196716000Y-118688000D02*
X196716000Y-108408000D01*
X196716000Y-108408000D02*
X195066000Y-108408000D01*
X191416000Y-118688000D02*
X196716000Y-118688000D01*
X193066000Y-108408000D02*
G75*
G03*
X195066000Y-108408000I1000000J0D01*
G01*
%TO.C,C5*%
X171804000Y-109808000D02*
X169064000Y-109808000D01*
X169064000Y-104568000D02*
X169064000Y-109808000D01*
X171804000Y-104568000D02*
X169064000Y-104568000D01*
X171804000Y-104568000D02*
X171804000Y-109808000D01*
%TO.C,R2*%
X138906000Y-121766000D02*
X132366000Y-121766000D01*
X132366000Y-121766000D02*
X132366000Y-121436000D01*
X132366000Y-119026000D02*
X132366000Y-119356000D01*
X138906000Y-119026000D02*
X132366000Y-119026000D01*
X138906000Y-121436000D02*
X138906000Y-121766000D01*
X138906000Y-119356000D02*
X138906000Y-119026000D01*
%TO.C,BT1*%
X385142000Y-107538000D02*
X385142000Y-119538000D01*
X337142000Y-107538000D02*
X337142000Y-119538000D01*
X379142000Y-112538000D02*
X379142000Y-114538000D01*
X337142000Y-119538000D02*
X340142000Y-119538000D01*
X338142000Y-115538000D02*
X337142000Y-115538000D01*
X380142000Y-109538000D02*
X370142000Y-109538000D01*
X368142000Y-107538000D02*
X354142000Y-107538000D01*
X336342000Y-106938000D02*
X336342000Y-120138000D01*
X342142000Y-109538000D02*
X352142000Y-109538000D01*
X381142000Y-116538000D02*
X381142000Y-110538000D01*
X385142000Y-107538000D02*
X382142000Y-107538000D01*
X342142000Y-117538000D02*
X352142000Y-117538000D01*
X386542000Y-106938000D02*
X336342000Y-106938000D01*
X385142000Y-119538000D02*
X382142000Y-119538000D01*
X336342000Y-120138000D02*
X386542000Y-120138000D01*
X380142000Y-111538000D02*
X380142000Y-115538000D01*
X337142000Y-107538000D02*
X340142000Y-107538000D01*
X386542000Y-120138000D02*
X386542000Y-106938000D01*
X382142000Y-109538000D02*
X382142000Y-117538000D01*
X380142000Y-117538000D02*
X370142000Y-117538000D01*
X337142000Y-111538000D02*
X338142000Y-111538000D01*
X354142000Y-119538000D02*
X368142000Y-119538000D01*
X340142000Y-107538000D02*
G75*
G03*
X342142000Y-109538000I2000000J0D01*
G01*
X354142000Y-119538000D02*
G75*
G03*
X352142000Y-117538000I-2000000J0D01*
G01*
X380142000Y-109538000D02*
G75*
G03*
X382142000Y-107538000I0J2000000D01*
G01*
X382142000Y-119538000D02*
G75*
G03*
X380142000Y-117538000I-2000000J0D01*
G01*
X368142000Y-107538000D02*
G75*
G03*
X370142000Y-109538000I2000000J0D01*
G01*
X370142000Y-117538000D02*
G75*
G03*
X368142000Y-119538000I0J-2000000D01*
G01*
X352142000Y-109538000D02*
G75*
G03*
X354142000Y-107538000I0J2000000D01*
G01*
X342142000Y-117538000D02*
G75*
G03*
X340142000Y-119538000I0J-2000000D01*
G01*
%TO.C,D7*%
X71603000Y-111993000D02*
X71603000Y-115083000D01*
X77153000Y-113538462D02*
G75*
G03*
X71603000Y-111993170I-2990000J462D01*
G01*
X71603000Y-115082830D02*
G75*
G03*
X77153000Y-113537538I2560000J1544830D01*
G01*
X76663000Y-113538000D02*
G75*
G03*
X76663000Y-113538000I-2500000J0D01*
G01*
%TO.C,U2*%
X175922000Y-104583000D02*
X175922000Y-122483000D01*
X177572000Y-104583000D02*
X175922000Y-104583000D01*
X181222000Y-122483000D02*
X181222000Y-104583000D01*
X175922000Y-122483000D02*
X181222000Y-122483000D01*
X181222000Y-104583000D02*
X179572000Y-104583000D01*
X177572000Y-104583000D02*
G75*
G03*
X179572000Y-104583000I1000000J0D01*
G01*
%TO.C,D5*%
X95220000Y-111993000D02*
X95220000Y-115083000D01*
X95220000Y-115082830D02*
G75*
G03*
X100770000Y-113537538I2560000J1544830D01*
G01*
X100770000Y-113538462D02*
G75*
G03*
X95220000Y-111993170I-2990000J462D01*
G01*
X100280000Y-113538000D02*
G75*
G03*
X100280000Y-113538000I-2500000J0D01*
G01*
%TO.C,BT3*%
X281510000Y-107538000D02*
X281510000Y-119538000D01*
X233510000Y-119538000D02*
X236510000Y-119538000D01*
X282910000Y-120138000D02*
X282910000Y-106938000D01*
X276510000Y-109538000D02*
X266510000Y-109538000D01*
X234510000Y-115538000D02*
X233510000Y-115538000D01*
X281510000Y-107538000D02*
X278510000Y-107538000D01*
X276510000Y-111538000D02*
X276510000Y-115538000D01*
X277510000Y-116538000D02*
X277510000Y-110538000D01*
X238510000Y-109538000D02*
X248510000Y-109538000D01*
X233510000Y-111538000D02*
X234510000Y-111538000D01*
X275510000Y-112538000D02*
X275510000Y-114538000D01*
X232710000Y-106938000D02*
X232710000Y-120138000D01*
X238510000Y-117538000D02*
X248510000Y-117538000D01*
X250510000Y-119538000D02*
X264510000Y-119538000D01*
X232710000Y-120138000D02*
X282910000Y-120138000D01*
X276510000Y-117538000D02*
X266510000Y-117538000D01*
X278510000Y-109538000D02*
X278510000Y-117538000D01*
X281510000Y-119538000D02*
X278510000Y-119538000D01*
X233510000Y-107538000D02*
X233510000Y-119538000D01*
X264510000Y-107538000D02*
X250510000Y-107538000D01*
X282910000Y-106938000D02*
X232710000Y-106938000D01*
X233510000Y-107538000D02*
X236510000Y-107538000D01*
X278510000Y-119538000D02*
G75*
G03*
X276510000Y-117538000I-2000000J0D01*
G01*
X248510000Y-109538000D02*
G75*
G03*
X250510000Y-107538000I0J2000000D01*
G01*
X238510000Y-117538000D02*
G75*
G03*
X236510000Y-119538000I0J-2000000D01*
G01*
X266510000Y-117538000D02*
G75*
G03*
X264510000Y-119538000I0J-2000000D01*
G01*
X276510000Y-109538000D02*
G75*
G03*
X278510000Y-107538000I0J2000000D01*
G01*
X264510000Y-107538000D02*
G75*
G03*
X266510000Y-109538000I2000000J0D01*
G01*
X250510000Y-119538000D02*
G75*
G03*
X248510000Y-117538000I-2000000J0D01*
G01*
X236510000Y-107538000D02*
G75*
G03*
X238510000Y-109538000I2000000J0D01*
G01*
%TO.C,C6*%
X187552000Y-109854000D02*
X184812000Y-109854000D01*
X187552000Y-104614000D02*
X187552000Y-109854000D01*
X184812000Y-104614000D02*
X184812000Y-109854000D01*
X187552000Y-104614000D02*
X184812000Y-104614000D01*
%TO.C,R7*%
X73433000Y-108050000D02*
X73433000Y-107720000D01*
X79973000Y-105640000D02*
X79973000Y-105310000D01*
X73433000Y-105310000D02*
X73433000Y-105640000D01*
X79973000Y-105310000D02*
X73433000Y-105310000D01*
X79973000Y-108050000D02*
X73433000Y-108050000D01*
X79973000Y-107720000D02*
X79973000Y-108050000D01*
%TO.C,D1*%
X141956000Y-111993000D02*
X141956000Y-115083000D01*
X147506000Y-113538462D02*
G75*
G03*
X141956000Y-111993170I-2990000J462D01*
G01*
X141956000Y-115082830D02*
G75*
G03*
X147506000Y-113537538I2560000J1544830D01*
G01*
X147016000Y-113538000D02*
G75*
G03*
X147016000Y-113538000I-2500000J0D01*
G01*
%TO.C,C4*%
X228060000Y-117094000D02*
G75*
G03*
X228060000Y-117094000I-3270000J0D01*
G01*
%TO.C,R5*%
X103590000Y-107720000D02*
X103590000Y-108050000D01*
X103590000Y-105310000D02*
X97050000Y-105310000D01*
X103590000Y-108050000D02*
X97050000Y-108050000D01*
X97050000Y-108050000D02*
X97050000Y-107720000D01*
X103590000Y-105640000D02*
X103590000Y-105310000D01*
X97050000Y-105310000D02*
X97050000Y-105640000D01*
%TO.C,R3*%
X120677000Y-105310000D02*
X120677000Y-105640000D01*
X127217000Y-107720000D02*
X127217000Y-108050000D01*
X120677000Y-108050000D02*
X120677000Y-107720000D01*
X127217000Y-105310000D02*
X120677000Y-105310000D01*
X127217000Y-108050000D02*
X120677000Y-108050000D01*
X127217000Y-105640000D02*
X127217000Y-105310000D01*
%TO.C,R6*%
X91911000Y-121436000D02*
X91911000Y-121766000D01*
X85371000Y-121766000D02*
X85371000Y-121436000D01*
X91911000Y-121766000D02*
X85371000Y-121766000D01*
X91911000Y-119356000D02*
X91911000Y-119026000D01*
X91911000Y-119026000D02*
X85371000Y-119026000D01*
X85371000Y-119026000D02*
X85371000Y-119356000D01*
%TO.C,R1*%
X150331000Y-107720000D02*
X150331000Y-108050000D01*
X150331000Y-105640000D02*
X150331000Y-105310000D01*
X143791000Y-105310000D02*
X143791000Y-105640000D01*
X143791000Y-108050000D02*
X143791000Y-107720000D01*
X150331000Y-105310000D02*
X143791000Y-105310000D01*
X150331000Y-108050000D02*
X143791000Y-108050000D01*
%TO.C,C1*%
X196676000Y-104548000D02*
X191436000Y-104548000D01*
X196676000Y-107288000D02*
X191436000Y-107288000D01*
X196676000Y-107288000D02*
X196676000Y-104548000D01*
X191436000Y-107288000D02*
X191436000Y-104548000D01*
%TO.C,D3*%
X118847000Y-111993000D02*
X118847000Y-115083000D01*
X118847000Y-115082830D02*
G75*
G03*
X124397000Y-113537538I2560000J1544830D01*
G01*
X124397000Y-113538462D02*
G75*
G03*
X118847000Y-111993170I-2990000J462D01*
G01*
X123907000Y-113538000D02*
G75*
G03*
X123907000Y-113538000I-2500000J0D01*
G01*
%TO.C,POT1*%
X207215000Y-104784000D02*
X210245000Y-104784000D01*
X207215000Y-111624000D02*
X210245000Y-111624000D01*
X211545000Y-111624000D02*
X214455000Y-111624000D01*
X211545000Y-104784000D02*
X214455000Y-104784000D01*
X207215000Y-104784000D02*
X207215000Y-111624000D01*
X214455000Y-104784000D02*
X214455000Y-111624000D01*
%TO.C,D6*%
X83536000Y-111993000D02*
X83536000Y-115083000D01*
X83536000Y-115082830D02*
G75*
G03*
X89086000Y-113537538I2560000J1544830D01*
G01*
X89086000Y-113538462D02*
G75*
G03*
X83536000Y-111993170I-2990000J462D01*
G01*
X88596000Y-113538000D02*
G75*
G03*
X88596000Y-113538000I-2500000J0D01*
G01*
%TO.C,BT2*%
X285326000Y-107538000D02*
X285326000Y-119538000D01*
X302326000Y-119538000D02*
X316326000Y-119538000D01*
X333326000Y-107538000D02*
X330326000Y-107538000D01*
X334726000Y-120138000D02*
X334726000Y-106938000D01*
X328326000Y-117538000D02*
X318326000Y-117538000D01*
X285326000Y-119538000D02*
X288326000Y-119538000D01*
X328326000Y-111538000D02*
X328326000Y-115538000D01*
X285326000Y-107538000D02*
X288326000Y-107538000D01*
X290326000Y-117538000D02*
X300326000Y-117538000D01*
X327326000Y-112538000D02*
X327326000Y-114538000D01*
X330326000Y-109538000D02*
X330326000Y-117538000D01*
X316326000Y-107538000D02*
X302326000Y-107538000D01*
X286326000Y-115538000D02*
X285326000Y-115538000D01*
X328326000Y-109538000D02*
X318326000Y-109538000D01*
X333326000Y-107538000D02*
X333326000Y-119538000D01*
X333326000Y-119538000D02*
X330326000Y-119538000D01*
X290326000Y-109538000D02*
X300326000Y-109538000D01*
X329326000Y-116538000D02*
X329326000Y-110538000D01*
X334726000Y-106938000D02*
X284526000Y-106938000D01*
X284526000Y-106938000D02*
X284526000Y-120138000D01*
X284526000Y-120138000D02*
X334726000Y-120138000D01*
X285326000Y-111538000D02*
X286326000Y-111538000D01*
X300326000Y-109538000D02*
G75*
G03*
X302326000Y-107538000I0J2000000D01*
G01*
X316326000Y-107538000D02*
G75*
G03*
X318326000Y-109538000I2000000J0D01*
G01*
X290326000Y-117538000D02*
G75*
G03*
X288326000Y-119538000I0J-2000000D01*
G01*
X318326000Y-117538000D02*
G75*
G03*
X316326000Y-119538000I0J-2000000D01*
G01*
X330326000Y-119538000D02*
G75*
G03*
X328326000Y-117538000I-2000000J0D01*
G01*
X302326000Y-119538000D02*
G75*
G03*
X300326000Y-117538000I-2000000J0D01*
G01*
X288326000Y-107538000D02*
G75*
G03*
X290326000Y-109538000I2000000J0D01*
G01*
X328326000Y-109538000D02*
G75*
G03*
X330326000Y-107538000I0J2000000D01*
G01*
%TO.C,R4*%
X115279000Y-121766000D02*
X108739000Y-121766000D01*
X108739000Y-121766000D02*
X108739000Y-121436000D01*
X108739000Y-119026000D02*
X108739000Y-119356000D01*
X115279000Y-119026000D02*
X108739000Y-119026000D01*
X115279000Y-121436000D02*
X115279000Y-121766000D01*
X115279000Y-119356000D02*
X115279000Y-119026000D01*
%TO.C,D2*%
X130531000Y-111993000D02*
X130531000Y-115083000D01*
X136081000Y-113538462D02*
G75*
G03*
X130531000Y-111993170I-2990000J462D01*
G01*
X130531000Y-115082830D02*
G75*
G03*
X136081000Y-113537538I2560000J1544830D01*
G01*
X135591000Y-113538000D02*
G75*
G03*
X135591000Y-113538000I-2500000J0D01*
G01*
%TO.C,SW1*%
X217648000Y-106956000D02*
X217648000Y-110976000D01*
X227868000Y-109476000D02*
X226868000Y-109476000D01*
X217648000Y-109476000D02*
X218648000Y-109476000D01*
X218148000Y-107456000D02*
X227368000Y-107456000D01*
X217648000Y-108666000D02*
X218148000Y-108666000D01*
X218648000Y-109476000D02*
X218648000Y-110976000D01*
X218148000Y-108666000D02*
X218148000Y-107456000D01*
X227368000Y-108666000D02*
X227868000Y-108666000D01*
X217348000Y-111276000D02*
X219848000Y-111276000D01*
X217348000Y-108776000D02*
X217348000Y-111276000D01*
X227868000Y-110976000D02*
X227868000Y-106956000D01*
X227868000Y-106956000D02*
X217648000Y-106956000D01*
X227368000Y-107456000D02*
X227368000Y-108666000D01*
X226868000Y-109476000D02*
X226868000Y-110976000D01*
X217648000Y-110976000D02*
X227868000Y-110976000D01*
%TO.C,D4*%
X106909000Y-111993000D02*
X106909000Y-115083000D01*
X112459000Y-113538462D02*
G75*
G03*
X106909000Y-111993170I-2990000J462D01*
G01*
X106909000Y-115082830D02*
G75*
G03*
X112459000Y-113537538I2560000J1544830D01*
G01*
X111969000Y-113538000D02*
G75*
G03*
X111969000Y-113538000I-2500000J0D01*
G01*
%TO.C,POT2*%
X211545000Y-115437000D02*
X214455000Y-115437000D01*
X211545000Y-122277000D02*
X214455000Y-122277000D01*
X207215000Y-115437000D02*
X210245000Y-115437000D01*
X214455000Y-115437000D02*
X214455000Y-122277000D01*
X207215000Y-122277000D02*
X210245000Y-122277000D01*
X207215000Y-115437000D02*
X207215000Y-122277000D01*
%TO.C,D8*%
X59919000Y-111993000D02*
X59919000Y-115083000D01*
X65469000Y-113538462D02*
G75*
G03*
X59919000Y-111993170I-2990000J462D01*
G01*
X59919000Y-115082830D02*
G75*
G03*
X65469000Y-113537538I2560000J1544830D01*
G01*
X64979000Y-113538000D02*
G75*
G03*
X64979000Y-113538000I-2500000J0D01*
G01*
%TO.C,C3*%
X200072000Y-113438000D02*
X200072000Y-116178000D01*
X200072000Y-113438000D02*
X205312000Y-113438000D01*
X205312000Y-113438000D02*
X205312000Y-116178000D01*
X200072000Y-116178000D02*
X205312000Y-116178000D01*
%TO.C,U3*%
X160174000Y-103333000D02*
X160174000Y-123773000D01*
X165474000Y-123773000D02*
X165474000Y-103333000D01*
X161824000Y-103333000D02*
X160174000Y-103333000D01*
X160174000Y-123773000D02*
X165474000Y-123773000D01*
X165474000Y-103333000D02*
X163824000Y-103333000D01*
X161824000Y-103333000D02*
G75*
G03*
X163824000Y-103333000I1000000J0D01*
G01*
%TO.C,R8*%
X61749000Y-119026000D02*
X61749000Y-119356000D01*
X68289000Y-121436000D02*
X68289000Y-121766000D01*
X61749000Y-121766000D02*
X61749000Y-121436000D01*
X68289000Y-119026000D02*
X61749000Y-119026000D01*
X68289000Y-121766000D02*
X61749000Y-121766000D01*
X68289000Y-119356000D02*
X68289000Y-119026000D01*
%TO.C,C2*%
X196676000Y-122528000D02*
X196676000Y-119788000D01*
X196676000Y-119788000D02*
X191436000Y-119788000D01*
X196676000Y-122528000D02*
X191436000Y-122528000D01*
X191436000Y-122528000D02*
X191436000Y-119788000D01*
%TD*%
M02*
